<svg xmlns="http://www.w3.org/2000/svg" version="1.1" xmlns:xlink="http://www.w3.org/1999/xlink" xmlns:svgjs="http://svgjs.com/svgjs" width="25" height="25"><svg width="25" height="25" viewBox="0 0 25 25" fill="none" xmlns="http://www.w3.org/2000/svg">
<path fill-rule="evenodd" clip-rule="evenodd" d="M9.6863 2.95491C11.4387 1.68169 13.8117 1.6817 15.5641 2.95492L21.189 7.04163C22.9415 8.31485 23.6748 10.5717 23.0054 12.6318L20.8569 19.2442C20.1875 21.3044 18.2677 22.6992 16.1016 22.6992H9.14885C6.98272 22.6992 5.06294 21.3044 4.39357 19.2442L2.24506 12.6318C1.57569 10.5717 2.30898 8.31485 4.06142 7.04163L9.6863 2.95491ZM5.86464 15.1033C5.59102 14.8297 5.15128 14.8255 4.88274 15.094C4.6142 15.3626 4.61854 15.8022 4.89216 16.0758C7.07348 18.2571 9.916 19.3646 12.7476 19.392C15.5796 19.4192 18.4012 18.3658 20.5409 16.2261L20.5664 16.2005C19.724 15.3635 18.6898 14.6241 18.6501 14.5957L18.6492 14.5948C17.7788 14.008 16.6589 13.4682 15.5243 13.5145C14.6969 13.5482 14.1777 13.7668 13.6589 13.9852C12.8695 14.3175 12.0808 14.6495 10.2082 14.3295C10.2082 14.3295 9.71755 14.3421 9.74418 14.6359C9.76633 14.8837 10.4797 15.763 12.395 15.7608C12.4963 15.7607 12.6382 15.7523 12.7939 15.743C13.2374 15.7167 13.7924 15.6838 13.8362 15.8169C13.8828 15.9581 11.0934 18.3591 7.56167 16.4667C6.96022 16.0836 6.39055 15.6293 5.86464 15.1033ZM20.3678 10.7985C20.0993 11.067 19.6595 11.0628 19.3859 10.7892C18.86 10.2633 18.2903 9.80895 17.6889 9.42586C14.1572 7.53347 11.3677 9.93444 11.4144 10.0756C11.4582 10.2088 12.0131 10.1758 12.4566 10.1495C12.6123 10.1403 12.7543 10.1318 12.8556 10.1317C14.7708 10.1296 15.4842 11.0088 15.5064 11.2566C15.533 11.5504 15.0424 11.5631 15.0424 11.5631C13.1697 11.243 12.3811 11.575 11.5916 11.9073C11.0728 12.1257 10.5536 12.3443 9.72624 12.378C8.59167 12.4243 7.47175 11.8845 6.60138 11.2978L6.60039 11.2968C6.56069 11.2685 5.5265 10.529 4.68412 9.69198L4.70964 9.66647C6.84938 7.52672 9.67094 6.47335 12.503 6.50051C15.3345 6.52792 18.1771 7.63538 20.3584 9.81671C20.632 10.0903 20.6363 10.5299 20.3678 10.7985Z" fill="#495C66"></path>
</svg><style>@media (prefers-color-scheme: light) { :root { filter: none; } }
</style></svg>